<?xml version="1.0" encoding="utf-8"?>
<!-- Generator: Adobe Illustrator 16.0.3, SVG Export Plug-In . SVG Version: 6.00 Build 0)  -->
<!DOCTYPE svg PUBLIC "-//W3C//DTD SVG 1.1 Tiny//EN" "http://www.w3.org/Graphics/SVG/1.1/DTD/svg11-tiny.dtd">
<svg version="1.1" baseProfile="tiny" id="Layer_1" xmlns="http://www.w3.org/2000/svg" xmlns:xlink="http://www.w3.org/1999/xlink"
	 x="0px" y="0px" width="192px" height="15.991px" viewBox="0 0 192 15.991" xml:space="preserve">
<g>
	<path d="M1.842,15.716H1.776H0L6.72,0.455l6.55,15.262h-1.8l0,0H1.842z M6.682,4.242l-4.183,9.965h8.335L6.682,4.242z"/>
	<path d="M27.825,13.862h5.967v1.503h-7.589V0.803h1.623V13.862z"/>
	<path d="M51.189,13.862h5.965v1.503h-7.589V0.803h1.624V13.862z"/>
	<path d="M71.866,15.716L71.866,15.716h-1.773l6.721-15.262l6.544,15.262h-1.796l0,0H71.866z M76.772,4.242l-4.25,9.965h8.402
		L76.772,4.242z"/>
	<g>
		<path d="M109.974,0l5.292,12.229L120.577,0l2.957,15.394h-1.664l-1.875-9.848h-0.037l-4.693,10.445l-4.672-10.445h-0.038
			l-1.875,9.848h-1.662L109.974,0z"/>
		<path d="M146.227,8.015c0,4.192-3.436,7.517-7.587,7.517c-4.154,0-7.59-3.324-7.59-7.517c0-4.171,3.436-7.551,7.59-7.551
			C142.791,0.464,146.227,3.844,146.227,8.015z M132.67,7.995c0,3.283,2.663,6.025,5.969,6.025c3.303,0,5.968-2.742,5.968-6.025
			c0-3.303-2.626-6.023-5.968-6.023C135.295,1.972,132.67,4.692,132.67,7.995z"/>
		<path d="M156.585,0.717h2.743c2.179,0,3.956,0.29,5.681,1.753c1.655,1.432,2.413,3.383,2.413,5.544
			c0,2.125-0.776,3.997-2.375,5.428c-1.743,1.548-3.481,1.831-5.756,1.831h-2.706V0.717z M159.385,13.772
			c1.779,0,3.263-0.25,4.594-1.506c1.2-1.119,1.818-2.647,1.818-4.271c0-1.661-0.638-3.266-1.894-4.362
			c-1.331-1.181-2.796-1.411-4.519-1.411h-1.181v11.55H159.385z"/>
		<path d="M180.459,15.628h0.048h-1.774l6.713-15.259L192,15.628h-1.793l0,0H180.459z M185.409,4.152l-4.294,9.966h8.454
			L185.409,4.152z"/>
	</g>
</g>
</svg>
